<svg viewBox="0 0 700 850" xmlns="http://www.w3.org/2000/svg">
  <!-- Background -->
  <rect x="0" y="0" width="700" height="850" fill="#e6e6e6" />
  
  <!-- Title Section -->
  <text x="350" y="30" font-family="Arial" font-size="22" font-weight="bold" text-anchor="middle">SQL Server Data Governance Framework</text>
  <text x="350" y="55" font-family="Arial" font-size="14" text-anchor="middle">A Comprehensive Guide for Microsoft SSMS Environment</text>
  
  <!-- Data Governance Central Components -->
  <rect x="133" y="80" width="435" height="45" fill="#333333" rx="5" />
  <text x="350" y="110" font-family="Arial" font-size="18" font-weight="bold" fill="white" text-anchor="middle">Data Governance Central Components</text>
  
  <!-- Security Controls Section -->
  <rect x="75" y="145" width="150" height="35" fill="#a18a76" rx="5" />
  <text x="150" y="168" font-family="Arial" font-size="10" font-weight="bold" fill="white" text-anchor="middle">Security Controls</text>
  
  <!-- Security Controls Items -->
  <rect x="75" y="185" width="75" height="25" fill="#e8d7c9" rx="3" />
  <text x="112" y="201" font-family="Arial" font-size="8" text-anchor="middle">Authentication</text>
  
  <rect x="155" y="185" width="70" height="25" fill="#e8d7c9" rx="3" />
  <text x="190" y="201" font-family="Arial" font-size="8" text-anchor="middle">Authorization</text>
  
  <rect x="75" y="215" width="75" height="25" fill="#e8d7c9" rx="3" />
  <text x="112" y="231" font-family="Arial" font-size="8" text-anchor="middle">Audit Trails</text>
  
  <rect x="155" y="215" width="70" height="25" fill="#e8d7c9" rx="3" />
  <text x="190" y="231" font-family="Arial" font-size="8" text-anchor="middle">Data Encryption</text>
  
  <rect x="75" y="245" width="75" height="25" fill="#e8d7c9" rx="3" />
  <text x="112" y="261" font-family="Arial" font-size="8" text-anchor="middle">Data Masking</text>
  
  <rect x="155" y="245" width="70" height="25" fill="#e8d7c9" rx="3" />
  <text x="190" y="261" font-family="Arial" font-size="8" text-anchor="middle">Row-Level Security</text>
  
  <rect x="75" y="275" width="75" height="25" fill="#e8d7c9" rx="3" />
  <text x="112" y="291" font-family="Arial" font-size="8" text-anchor="middle">Column Encryption</text>
  
  <rect x="155" y="275" width="70" height="25" fill="#e8d7c9" rx="3" />
  <text x="190" y="291" font-family="Arial" font-size="8" text-anchor="middle">Network Security</text>
  
  <!-- Data Quality Management Section -->
  <rect x="275" y="145" width="150" height="35" fill="#a18a76" rx="5" />
  <text x="350" y="168" font-family="Arial" font-size="10" font-weight="bold" fill="white" text-anchor="middle">Data Quality Management</text>
  
  <!-- Data Quality Management Items -->
  <rect x="275" y="185" width="70" height="25" fill="#e8d7c9" rx="3" />
  <text x="310" y="201" font-family="Arial" font-size="8" text-anchor="middle">Validation Rules</text>
  
  <rect x="350" y="185" width="75" height="25" fill="#e8d7c9" rx="3" />
  <text x="387" y="201" font-family="Arial" font-size="8" text-anchor="middle">Constraints</text>
  
  <rect x="275" y="215" width="70" height="25" fill="#e8d7c9" rx="3" />
  <text x="310" y="231" font-family="Arial" font-size="8" text-anchor="middle">Integrity Checks</text>
  
  <rect x="350" y="215" width="75" height="25" fill="#e8d7c9" rx="3" />
  <text x="387" y="231" font-family="Arial" font-size="8" text-anchor="middle">Data Profiling</text>
  
  <rect x="275" y="245" width="70" height="25" fill="#e8d7c9" rx="3" />
  <text x="310" y="261" font-family="Arial" font-size="8" text-anchor="middle">Data Cleansing</text>
  
  <rect x="350" y="245" width="75" height="25" fill="#e8d7c9" rx="3" />
  <text x="387" y="261" font-family="Arial" font-size="8" text-anchor="middle">Metadata Mgmt</text>
  
  <rect x="275" y="275" width="70" height="25" fill="#e8d7c9" rx="3" />
  <text x="310" y="291" font-family="Arial" font-size="8" text-anchor="middle">Data Types</text>
  
  <rect x="350" y="275" width="75" height="25" fill="#e8d7c9" rx="3" />
  <text x="387" y="291" font-family="Arial" font-size="8" text-anchor="middle">Data Standards</text>
  
  <!-- Performance Optimization Section -->
  <rect x="475" y="145" width="150" height="35" fill="#a18a76" rx="5" />
  <text x="550" y="168" font-family="Arial" font-size="10" font-weight="bold" fill="white" text-anchor="middle">Performance Optimization</text>
  
  <!-- Performance Optimization Items -->
  <rect x="475" y="185" width="70" height="25" fill="#e8d7c9" rx="3" />
  <text x="510" y="201" font-family="Arial" font-size="8" text-anchor="middle">Index Management</text>
  
  <rect x="550" y="185" width="75" height="25" fill="#e8d7c9" rx="3" />
  <text x="587" y="201" font-family="Arial" font-size="8" text-anchor="middle">Statistics</text>
  
  <rect x="475" y="215" width="70" height="25" fill="#e8d7c9" rx="3" />
  <text x="510" y="231" font-family="Arial" font-size="8" text-anchor="middle">Query Performance</text>
  
  <rect x="550" y="215" width="75" height="25" fill="#e8d7c9" rx="3" />
  <text x="587" y="231" font-family="Arial" font-size="8" text-anchor="middle">Resource Gov.</text>
  
  <rect x="475" y="245" width="70" height="25" fill="#e8d7c9" rx="3" />
  <text x="510" y="261" font-family="Arial" font-size="8" text-anchor="middle">Partitioning</text>
  
  <rect x="550" y="245" width="75" height="25" fill="#e8d7c9" rx="3" />
  <text x="587" y="261" font-family="Arial" font-size="8" text-anchor="middle">Maintenance Plans</text>
  
  <rect x="475" y="275" width="70" height="25" fill="#e8d7c9" rx="3" />
  <text x="510" y="291" font-family="Arial" font-size="8" text-anchor="middle">Memory Config</text>
  
  <rect x="550" y="275" width="75" height="25" fill="#e8d7c9" rx="3" />
  <text x="587" y="291" font-family="Arial" font-size="8" text-anchor="middle">Query Store</text>
  
  <!-- Compliance Framework Section -->
  <rect x="75" y="325" width="150" height="35" fill="#a18a76" rx="5" />
  <text x="150" y="348" font-family="Arial" font-size="10" font-weight="bold" fill="white" text-anchor="middle">Compliance Framework</text>
  
  <!-- Compliance Framework Items -->
  <rect x="75" y="365" width="70" height="25" fill="#e8d7c9" rx="3" />
  <text x="110" y="381" font-family="Arial" font-size="8" text-anchor="middle">GDPR</text>
  
  <rect x="150" y="365" width="75" height="25" fill="#e8d7c9" rx="3" />
  <text x="187" y="381" font-family="Arial" font-size="8" text-anchor="middle">HIPAA</text>
  
  <rect x="75" y="395" width="70" height="25" fill="#e8d7c9" rx="3" />
  <text x="110" y="411" font-family="Arial" font-size="8" text-anchor="middle">PCI DSS</text>
  
  <rect x="150" y="395" width="75" height="25" fill="#e8d7c9" rx="3" />
  <text x="187" y="411" font-family="Arial" font-size="8" text-anchor="middle">SOX</text>
  
  <rect x="75" y="425" width="70" height="25" fill="#e8d7c9" rx="3" />
  <text x="110" y="441" font-family="Arial" font-size="8" text-anchor="middle">Data Retention</text>
  
  <rect x="150" y="425" width="75" height="25" fill="#e8d7c9" rx="3" />
  <text x="187" y="441" font-family="Arial" font-size="8" text-anchor="middle">Data Purging</text>
  
  <rect x="75" y="455" width="70" height="25" fill="#e8d7c9" rx="3" />
  <text x="110" y="471" font-family="Arial" font-size="8" text-anchor="middle">Access Controls</text>
  
  <rect x="150" y="455" width="75" height="25" fill="#e8d7c9" rx="3" />
  <text x="187" y="471" font-family="Arial" font-size="8" text-anchor="middle">Data Classification</text>
  
  <!-- Documentation Requirements Section -->
  <rect x="275" y="325" width="150" height="35" fill="#a18a76" rx="5" />
  <text x="350" y="348" font-family="Arial" font-size="10" font-weight="bold" fill="white" text-anchor="middle">Documentation Requirements</text>
  
  <!-- Documentation Requirements Items -->
  <rect x="275" y="365" width="70" height="25" fill="#e8d7c9" rx="3" />
  <text x="310" y="381" font-family="Arial" font-size="8" text-anchor="middle">Data Dictionary</text>
  
  <rect x="350" y="365" width="75" height="25" fill="#e8d7c9" rx="3" />
  <text x="387" y="381" font-family="Arial" font-size="8" text-anchor="middle">Data Lineage</text>
  
  <rect x="275" y="395" width="70" height="25" fill="#e8d7c9" rx="3" />
  <text x="310" y="411" font-family="Arial" font-size="8" text-anchor="middle">Stored Procedures</text>
  
  <rect x="350" y="395" width="75" height="25" fill="#e8d7c9" rx="3" />
  <text x="387" y="411" font-family="Arial" font-size="8" text-anchor="middle">Data Models</text>
  
  <rect x="275" y="425" width="70" height="25" fill="#e8d7c9" rx="3" />
  <text x="310" y="441" font-family="Arial" font-size="8" text-anchor="middle">Change Mgmt</text>
  
  <rect x="350" y="425" width="75" height="25" fill="#e8d7c9" rx="3" />
  <text x="387" y="441" font-family="Arial" font-size="8" text-anchor="middle">Data Ownership</text>
  
  <rect x="275" y="455" width="70" height="25" fill="#e8d7c9" rx="3" />
  <text x="310" y="471" font-family="Arial" font-size="8" text-anchor="middle">Process Flows</text>
  
  <rect x="350" y="455" width="75" height="25" fill="#e8d7c9" rx="3" />
  <text x="387" y="471" font-family="Arial" font-size="8" text-anchor="middle">Schema Version</text>
  
  <!-- Monitoring & Alerting Section -->
  <rect x="475" y="325" width="150" height="35" fill="#a18a76" rx="5" />
  <text x="550" y="348" font-family="Arial" font-size="10" font-weight="bold" fill="white" text-anchor="middle">Monitoring &amp; Alerting</text>
  
  <!-- Monitoring & Alerting Items -->
  <rect x="475" y="365" width="70" height="25" fill="#e8d7c9" rx="3" />
  <text x="510" y="381" font-family="Arial" font-size="8" text-anchor="middle">SQL Agent Jobs</text>
  
  <rect x="550" y="365" width="75" height="25" fill="#e8d7c9" rx="3" />
  <text x="587" y="381" font-family="Arial" font-size="8" text-anchor="middle">Backup Strategy</text>
  
  <rect x="475" y="395" width="70" height="25" fill="#e8d7c9" rx="3" />
  <text x="510" y="411" font-family="Arial" font-size="8" text-anchor="middle">Disaster Recovery</text>
  
  <rect x="550" y="395" width="75" height="25" fill="#e8d7c9" rx="3" />
  <text x="587" y="411" font-family="Arial" font-size="8" text-anchor="middle">Alerts</text>
  
  <rect x="475" y="425" width="70" height="25" fill="#e8d7c9" rx="3" />
  <text x="510" y="441" font-family="Arial" font-size="8" text-anchor="middle">Log Management</text>
  
  <rect x="550" y="425" width="75" height="25" fill="#e8d7c9" rx="3" />
  <text x="587" y="441" font-family="Arial" font-size="8" text-anchor="middle">Extended Events</text>
  
  <rect x="475" y="455" width="70" height="25" fill="#e8d7c9" rx="3" />
  <text x="510" y="471" font-family="Arial" font-size="8" text-anchor="middle">Health Monitoring</text>
  
  <rect x="550" y="455" width="75" height="25" fill="#e8d7c9" rx="3" />
  <text x="587" y="471" font-family="Arial" font-size="8" text-anchor="middle">Performance DMVs</text>
  
  <!-- Azure Integration Points -->
  <rect x="133" y="505" width="435" height="45" fill="#333333" rx="5" />
  <text x="350" y="535" font-family="Arial" font-size="18" font-weight="bold" fill="white" text-anchor="middle">Azure Integration Points</text>
  
  <!-- Azure Services -->
  <rect x="125" y="560" width="100" height="35" fill="#a18a76" rx="5" />
  <text x="175" y="582" font-family="Arial" font-size="8" font-weight="bold" fill="white" text-anchor="middle">Azure SQL Database</text>
  
  <rect x="235" y="560" width="100" height="35" fill="#a18a76" rx="5" />
  <text x="285" y="582" font-family="Arial" font-size="8" font-weight="bold" fill="white" text-anchor="middle">Azure Synapse</text>
  
  <rect x="345" y="560" width="100" height="35" fill="#a18a76" rx="5" />
  <text x="395" y="582" font-family="Arial" font-size="8" font-weight="bold" fill="white" text-anchor="middle">Azure Analysis Services</text>
  
  <rect x="455" y="560" width="100" height="35" fill="#a18a76" rx="5" />
  <text x="505" y="582" font-family="Arial" font-size="8" font-weight="bold" fill="white" text-anchor="middle">Azure Databricks</text>
  
  <rect x="175" y="605" width="100" height="35" fill="#a18a76" rx="5" />
  <text x="225" y="627" font-family="Arial" font-size="8" font-weight="bold" fill="white" text-anchor="middle">Azure Purview</text>
  
  <rect x="285" y="605" width="100" height="35" fill="#a18a76" rx="5" />
  <text x="335" y="627" font-family="Arial" font-size="8" font-weight="bold" fill="white" text-anchor="middle">Azure Monitor</text>
  
  <rect x="395" y="605" width="100" height="35" fill="#a18a76" rx="5" />
  <text x="445" y="627" font-family="Arial" font-size="8" font-weight="bold" fill="white" text-anchor="middle">Azure Data Factory</text>
  
  <!-- Key Data Governance Checklist Items -->
  <rect x="133" y="660" width="435" height="45" fill="#333333" rx="5" />
  <text x="350" y="690" font-family="Arial" font-size="18" font-weight="bold" fill="white" text-anchor="middle">Key Data Governance Checklist Items</text>
  
  <!-- Checklist Items -->
  <circle cx="80" cy="720" r="5" fill="#333333" />
  <text x="95" y="723" font-family="Arial" font-size="8" text-anchor="start">Review authentication methods</text>
  
  <circle cx="270" cy="720" r="5" fill="#333333" />
  <text x="285" y="723" font-family="Arial" font-size="8" text-anchor="start">Check index fragmentation</text>
  
  <circle cx="475" cy="720" r="5" fill="#333333" />
  <text x="490" y="723" font-family="Arial" font-size="8" text-anchor="start">Review Azure SQL firewall rules</text>
  
  <circle cx="80" cy="745" r="5" fill="#333333" />
  <text x="95" y="748" font-family="Arial" font-size="8" text-anchor="start">Verify Row-Level Security</text>
  
  <circle cx="270" cy="745" r="5" fill="#333333" />
  <text x="285" y="748" font-family="Arial" font-size="8" text-anchor="start">Review statistics updates</text>
  
  <circle cx="475" cy="745" r="5" fill="#333333" />
  <text x="490" y="748" font-family="Arial" font-size="8" text-anchor="start">Check data lineage docs</text>
  
  <circle cx="80" cy="770" r="5" fill="#333333" />
  <text x="95" y="773" font-family="Arial" font-size="8" text-anchor="start">Check data masking for PII</text>
  
  <circle cx="270" cy="770" r="5" fill="#333333" />
  <text x="285" y="773" font-family="Arial" font-size="8" text-anchor="start">Verify Query Store config</text>
  
  <circle cx="475" cy="770" r="5" fill="#333333" />
  <text x="490" y="773" font-family="Arial" font-size="8" text-anchor="start">Monitor SQL Agent jobs</text>
  
  <circle cx="80" cy="795" r="5" fill="#333333" />
  <text x="95" y="798" font-family="Arial" font-size="8" text-anchor="start">Audit server and database roles</text>
  
  <circle cx="270" cy="795" r="5" fill="#333333" />
  <text x="285" y="798" font-family="Arial" font-size="8" text-anchor="start">Test backup/restore procedures</text>
  
  <circle cx="475" cy="795" r="5" fill="#333333" />
  <text x="490" y="798" font-family="Arial" font-size="8" text-anchor="start">Verify regulatory compliance</text>
  
  <circle cx="80" cy="820" r="5" fill="#333333" />
  <text x="95" y="823" font-family="Arial" font-size="8" text-anchor="start">Verify TDE encryption status</text>
  
  <circle cx="270" cy="820" r="5" fill="#333333" />
  <text x="285" y="823" font-family="Arial" font-size="8" text-anchor="start">Document retention policies</text>
  
  <circle cx="475" cy="820" r="5" fill="#333333" />
  <text x="490" y="823" font-family="Arial" font-size="8" text-anchor="start">Review extended events</text>
  
  <!-- Source Attribution -->
  <text x="650" y="835" font-family="Arial" font-size="8" text-anchor="end">Source: Content Creator: Shrikesh Pattni</text>
</svg>
